Coordinates
version=1
nRows=24
nColumns=24
inDegrees=yes

Units are S.I. units (second, meters, Newtons, ...)
Angles are in degrees.

endheader
time	pelvis_tilt	pelvis_list	pelvis_rotation	pelvis_tx	pelvis_ty	pelvis_tz	hip_flexion_r	hip_adduction_r	hip_rotation_r	knee_angle_r	ankle_angle_r	subtalar_angle_r	mtp_angle_r	hip_flexion_l	hip_adduction_l	hip_rotation_l	knee_angle_l	ankle_angle_l	subtalar_angle_l	mtp_angle_l	lumbar_extension	lumbar_bending	lumbar_rotation
      0.77100000	     -3.32696394	      5.94509736	     12.42516278	      0.02484608	      0.97655742	      0.25694059	     30.09823139	     -9.26246957	    -13.56250471	     -2.02044466	      9.42532359	     -4.72778653	     10.20846592	    -21.16435356	      5.38579942	     12.65500511	     -1.23876423	      6.87652941	     -9.51537382	      9.68637593	     -1.01610192	     -8.21276201	     -2.61286761
      0.77516667	     -3.34059584	      5.92983424	     12.55759082	      0.03086152	      0.97593805	      0.25708493	     30.07368088	     -9.28007301	    -13.48611839	     -2.36374478	      9.53819452	     -5.06198704	     10.17925850	    -21.33821653	      5.25012799	     12.70739066	     -1.52900258	      6.73415734	     -9.44638052	      9.73621481	     -1.00008385	     -8.16093124	     -2.70015105
      0.77933333	     -3.35876313	      5.89665316	     12.68657222	      0.03694576	      0.97534908	      0.25723982	     30.03421746	     -9.27191277	    -13.36855487	     -2.69938861	      9.51371225	     -5.53747939	     10.13886570	    -21.48357467	      5.10058467	     12.70376447	     -1.85965084	      6.59112696	     -9.36307555	      9.84469318	     -0.95328236	     -8.10148683	     -2.83694143
      0.78350000	     -3.37457188	      5.85607855	     12.81786134	      0.04307521	      0.97479084	      0.25739994	     29.99647202	     -9.25800476	    -13.27650603	     -3.08487455	      9.52486008	     -5.90397011	     10.12081060	    -21.62262027	      4.94174211	     12.73269096	     -2.20408672	      6.40960413	     -9.27631937	      9.93264607	     -0.91451501	     -8.02063714	     -2.90603854
      0.78766667	     -3.39028588	      5.80140614	     12.93454725	      0.04926687	      0.97426044	      0.25758172	     29.94809313	     -9.21666751	    -13.14477349	     -3.46939427	      9.40575797	     -6.38294269	     10.10792515	    -21.74114314	      4.77636920	     12.70784825	     -2.58280029	      6.22226306	     -9.18271105	     10.06307070	     -0.85970025	     -7.92849426	     -3.00874001
      0.79183333	     -3.39576760	      5.73580046	     13.02832874	      0.05551115	      0.97376502	      0.25779973	     29.88898898	     -9.14802055	    -12.99172492	     -3.86556418	      9.18969681	     -6.88925412	     10.10720840	    -21.85061807	      4.60747041	     12.63572312	     -2.99771155	      6.05271818	     -9.08773498	     10.27986823	     -0.79973604	     -7.82458993	     -3.09296778
      0.79600000	     -3.34230740	      5.64098398	     13.10307264	      0.06183403	      0.97337322	      0.25804325	     29.76302816	     -9.02966507	    -12.87587065	     -4.26911983	      8.96840785	     -7.31340082	     10.32516829	    -21.98371262	      4.39692062	     12.38206032	     -3.46656042	      5.86029763	     -8.73811626	     12.73656865	     -0.80668145	     -7.65999022	     -3.02474159
      0.80016667	     -3.42662695	      5.56880383	     13.21537477	      0.06814855	      0.97285844	      0.25823844	     29.80552397	     -8.97881262	    -12.76156843	     -4.75408124	      8.71533718	     -7.75782736	     10.33570301	    -21.98998209	      4.24280697	     12.45331464	     -3.91321457	      5.55774257	     -8.84223876	     12.83074151	     -0.64651424	     -7.56977039	     -3.19124298
      0.80433333	     -3.43087847	      5.46361423	     13.28365691	      0.07454865	      0.97247389	      0.25849199	     29.74930092	     -8.85333640	    -12.62649132	     -5.20147724	      8.35539476	     -8.24166304	     10.35868760	    -22.05559470	      4.04838257	     12.36435335	     -4.39178243	      5.25717138	     -8.79681416	     12.96006589	     -0.56491318	     -7.41056258	     -3.24779602
      0.80850000	     -3.44939570	      5.35474110	     13.33566176	      0.08097754	      0.97210472	      0.25877131	     29.71925000	     -8.71784208	    -12.47357091	     -5.67525715	      7.94953557	     -8.74936028	     10.39684037	    -22.07472169	      3.86345977	     12.22114048	     -4.92911236	      4.96392766	     -8.69708040	     13.13088168	     -0.45300718	     -7.25395917	     -3.27932949
      0.81266667	     -3.46190643	      5.23243426	     13.37182797	      0.08742781	      0.97177631	      0.25909245	     29.69492404	     -8.55756106	    -12.29990578	     -6.17587075	      7.51765617	     -9.32559493	     10.47480527	    -22.06382410	      3.67186709	     12.03335938	     -5.53298100	      4.72818969	     -8.54982279	     13.43276962	     -0.35407192	     -7.08226401	     -3.28800655
      0.81683333	     -3.48960935	      5.10449100	     13.39085663	      0.09392183	      0.97145743	      0.25942667	     29.71419812	     -8.39847198	    -12.21636923	     -6.73245402	      7.06425466	     -9.67078156	     11.88826686	    -21.99600092	      3.48180029	     11.70497534	     -6.19696148	      4.38452333	     -8.28431229	     18.43056511	     -0.22557647	     -6.90977334	     -3.27860403
      0.82100000	     -3.49014042	      4.95208218	     13.39409590	      0.10048012	      0.97123744	      0.25975605	     29.69268967	     -8.19903056	    -12.10824961	     -7.26781319	      6.58536821	    -10.07668834	     11.88091557	    -21.99144690	      3.27307207	     11.56210280	     -6.78310076	      3.90660077	     -8.29968358	     18.47071041	     -0.11664323	     -6.68370914	     -3.27788308
      0.82516667	     -3.51259814	      4.80496023	     13.38133420	      0.10701642	      0.97102030	      0.26014956	     29.71380364	     -7.99712336	    -11.93462044	     -7.84114864	      6.07723583	    -10.62948755	     11.88754616	    -21.89659996	      3.08310798	     11.29517252	     -7.50523346	      3.55987173	     -8.15757971	     18.58808223	      0.02493727	     -6.48395066	     -3.23660026
      0.82933333	     -3.53256359	      4.64391244	     13.34435804	      0.11359023	      0.97084483	      0.26056887	     29.75163794	     -7.77772645	    -11.80292568	     -8.45103668	      5.58300452	    -11.03305226	     11.90962816	    -21.77873582	      2.88622502	     10.96996045	     -8.26394010	      3.14678888	     -7.95576507	     18.77011843	      0.16924620	     -6.26081994	     -3.18054150
      0.83350000	     -3.55291651	      4.48142319	     13.28933224	      0.12016631	      0.97071084	      0.26101324	     29.80921020	     -7.55374136	    -11.67657288	     -9.10205377	      5.10680302	    -11.38698459	     11.94608449	    -21.63059769	      2.69539589	     10.61534762	     -9.07305005	      2.70465813	     -7.73237297	     19.03276441	      0.31263504	     -6.03890754	     -3.11310752
      0.83766667	     -3.57149829	      4.31289641	     13.21225436	      0.12675969	      0.97062096	      0.26148591	     29.88221100	     -7.31928481	    -11.56141123	     -9.79039223	      4.66102098	    -11.68166149	     11.98925907	    -21.45811520	      2.50622149	     10.22810330	     -9.92470511	      2.22237894	     -7.50852574	     19.35070307	      0.46566044	     -5.80180006	     -3.02919467
      0.84183333	     -3.58611903	      4.14170558	     13.11818509	      0.13334789	      0.97057552	      0.26199144	     29.96720076	     -7.07876964	    -11.45147000	    -10.51375125	      4.25525628	    -11.92337680	     12.03638299	    -21.25557894	      2.31687089	      9.80159722	    -10.83436864	      1.71986656	     -7.25143104	     19.73603647	      0.61129037	     -5.56294537	     -2.93289773
      0.84600000	     -3.59649242	      3.97094965	     13.00477732	      0.13993110	      0.97057592	      0.26252576	     30.06170303	     -6.83434665	    -11.34628430	    -11.26945530	      3.89030106	    -12.10366151	     12.08270737	    -21.02888267	      2.13242185	      9.34795497	    -11.79168734	      1.17865253	     -6.98483312	     20.17820117	      0.75374541	     -5.32103681	     -2.82876948
      0.85016667	     -3.59747996	      3.80295381	     12.87583067	      0.14649530	      0.97063139	      0.26309033	     30.15623059	     -6.58799381	    -11.24424458	    -12.04971420	      3.56632385	    -12.23787286	     12.12595498	    -20.77797186	      1.95004368	      8.86110555	    -12.80631666	      0.61119983	     -6.69214401	     20.68777217	      0.88089515	     -5.07988104	     -2.71520584
      0.85433333	     -3.55177972	      3.63735292	     12.74181654	      0.15303915	      0.97080975	      0.26367402	     30.19535900	     -6.33565639	    -11.15972730	    -12.82410571	      3.23124109	    -12.37087235	     12.54863100	    -20.55961867	      1.75419750	      8.37903430	    -13.82121092	     -0.11589959	     -6.52381351	     27.63190571	      0.94291776	     -4.82955341	     -2.69473859
      0.85850000	     -3.54513442	      3.48359690	     12.58327198	      0.15955834	      0.97095418	      0.26427629	     30.30117422	     -6.10218044	    -11.08462407	    -13.65840410	      3.02957838	    -12.33361073	     12.53788175	    -20.26071440	      1.59230252	      7.88160122	    -14.93113935	     -0.74768352	     -6.27335328	     27.67086519	      1.05953261	     -4.60157597	     -2.53751673
      0.86266667	     -3.52589738	      3.32294715	     12.42159360	      0.16605605	      0.97116248	      0.26492794	     30.37949467	     -5.85193851	    -10.99332952	    -14.46527059	      2.82542115	    -12.34077376	     12.51841891	    -19.93668798	      1.41017537	      7.35278053	    -16.09706372	     -1.40432587	     -5.96874465	     27.74831767	      1.15497721	     -4.36482402	     -2.42766606
      0.86683333	     -3.49575428	      3.16942555	     12.25402839	      0.17251000	      0.97142772	      0.26559750	     30.43983397	     -5.60554635	    -10.90700452	    -15.26446734	      2.65677299	    -12.31881860	     12.48992634	    -19.59153787	      1.22976917	      6.81939551	    -17.31366302	     -2.09058710	     -5.66585187	     27.85684575	      1.23288009	     -4.13485420	     -2.32387847
